<svg width="24" height="24" viewBox="0 0 24 24" fill="none" xmlns="http://www.w3.org/2000/svg">
<path d="M21.6556 17.4606L16.3503 15.2842C16.2114 15.2291 16.0921 15.1338 16.0077 15.0105C15.9233 14.8871 15.8777 14.7414 15.8766 14.592V13.3516C15.8752 13.1918 15.9282 13.0364 16.0269 12.9107C17.4315 11.09 18.1957 8.85656 18.2008 6.55705C18.2021 2.63495 15.7099 0 12 0C8.2901 0 5.79789 2.63495 5.79789 6.55832C5.80311 8.85781 6.56729 11.0913 7.97179 12.912C8.07022 13.0373 8.12322 13.1923 8.12211 13.3516V14.5907C8.12106 14.7402 8.07541 14.8859 7.99102 15.0092C7.90663 15.1325 7.78733 15.2279 7.64842 15.2829L2.34316 17.4594C1.65074 17.7398 1.05783 18.2206 0.640372 18.8402C0.222919 19.4597 -6.09315e-05 20.1898 1.24894e-08 20.9368V23.0008C0.000334747 23.2659 0.105884 23.5201 0.293463 23.7074C0.481042 23.8948 0.735311 24 1.00042 24H22.9996C23.2649 24 23.5194 23.8946 23.707 23.707C23.8946 23.5194 24 23.2649 24 22.9996V20.9368C23.9997 20.1899 23.7764 19.46 23.3587 18.8406C22.9411 18.2213 22.348 17.7408 21.6556 17.4606ZM22.0004 22.0004H1.99958V20.9368C2.00084 20.5867 2.10659 20.245 2.30328 19.9554C2.49996 19.6658 2.77863 19.4414 3.10358 19.3112L8.40884 17.1347C8.91525 16.9297 9.34893 16.5782 9.65431 16.1252C9.95969 15.6722 10.1229 15.1383 10.1229 14.592V13.3516C10.1237 12.7366 9.91521 12.1397 9.53179 11.6589C8.41635 10.1916 7.80811 8.40146 7.79874 6.55832C7.79874 3.19832 9.96884 2.00084 12.0013 2.00084C14.0337 2.00084 16.2038 3.19832 16.2038 6.55832C16.1944 8.40146 15.5862 10.1916 14.4707 11.6589C14.0874 12.1398 13.8789 12.7366 13.8796 13.3516V14.5907C13.8797 15.1371 14.0428 15.6709 14.3482 16.1239C14.6536 16.577 15.0873 16.9285 15.5937 17.1335L20.8989 19.3099C21.2239 19.4402 21.5026 19.6645 21.6992 19.9541C21.8959 20.2437 22.0017 20.5855 22.0029 20.9356L22.0004 22.0004Z" fill="white"/>
</svg>
