<svg width="24" height="24" viewBox="0 0 24 24" fill="none" xmlns="http://www.w3.org/2000/svg">
<path d="M0.968446 1.9995H2.64055L5.14707 13.2951C4.52265 13.5929 3.99764 14.0645 3.63513 14.6531C3.27263 15.2418 3.08806 15.9225 3.10363 16.6134C3.06138 17.5149 3.37781 18.3964 3.98386 19.0657C4.58992 19.7349 5.4364 20.1377 6.33862 20.1859H19.6128C19.747 20.1904 19.8808 20.1678 20.0061 20.1195C20.1314 20.0713 20.2457 19.9983 20.3422 19.9051C20.4388 19.8118 20.5155 19.7001 20.5679 19.5766C20.6204 19.4531 20.6474 19.3203 20.6474 19.1862C20.6474 19.052 20.6204 18.9193 20.5679 18.7958C20.5155 18.6723 20.4388 18.5605 20.3422 18.4673C20.2457 18.374 20.1314 18.3011 20.0061 18.2528C19.8808 18.2046 19.747 18.182 19.6128 18.1864H6.33753C5.96901 18.1324 5.63525 17.9393 5.40504 17.6469C5.17482 17.3544 5.06568 16.9849 5.1001 16.6145C5.06526 16.2447 5.17351 15.8757 5.40263 15.5831C5.63175 15.2906 5.96434 15.0968 6.33207 15.0415H19.6128C19.8189 15.0416 20.02 14.9782 20.1887 14.8599C20.3574 14.7416 20.4854 14.5742 20.5553 14.3805L23.941 5.00912C23.9953 4.85812 24.0125 4.69628 23.991 4.53727C23.9695 4.37825 23.9101 4.22674 23.8177 4.09549C23.7253 3.96425 23.6026 3.85714 23.46 3.7832C23.3174 3.70926 23.1591 3.67067 22.9985 3.67066H5.06188L4.42187 0.784311C4.37283 0.561887 4.24918 0.362872 4.07141 0.220233C3.89364 0.0775937 3.67241 -0.000107976 3.44438 1.12616e-07H0.968446C0.708696 0.00857091 0.462453 0.117656 0.28174 0.30421C0.101028 0.490764 0 0.740175 0 0.999752C0 1.25933 0.101028 1.50874 0.28174 1.69529C0.462453 1.88185 0.708696 1.99093 0.968446 1.9995ZM21.5689 5.67235L18.9094 13.0442H7.14027L5.50202 5.67235H21.5689Z" fill="white"/>
<path d="M7.14681 21.9991C6.88705 22.0077 6.6408 22.1168 6.46009 22.3034C6.27937 22.4901 6.17834 22.7396 6.17834 22.9993C6.17834 23.2591 6.27937 23.5086 6.46009 23.6952C6.6408 23.8819 6.88705 23.991 7.14681 23.9996H8.41811C8.55234 24.004 8.68609 23.9815 8.81141 23.9332C8.93673 23.8849 9.05105 23.8119 9.14758 23.7186C9.2441 23.6253 9.32086 23.5135 9.37328 23.39C9.42569 23.2664 9.45271 23.1336 9.45271 22.9993C9.45271 22.8651 9.42569 22.7323 9.37328 22.6087C9.32086 22.4852 9.2441 22.3734 9.14758 22.2801C9.05105 22.1868 8.93673 22.1138 8.81141 22.0655C8.68609 22.0172 8.55234 21.9946 8.41811 21.9991H7.14681Z" fill="white"/>
<path d="M16.3834 21.9991C16.1236 22.0077 15.8774 22.1168 15.6967 22.3034C15.5159 22.4901 15.4149 22.7396 15.4149 22.9993C15.4149 23.2591 15.5159 23.5086 15.6967 23.6952C15.8774 23.8819 16.1236 23.991 16.3834 23.9996H17.6547C17.7889 24.004 17.9227 23.9815 18.048 23.9332C18.1733 23.8849 18.2876 23.8119 18.3841 23.7186C18.4807 23.6253 18.5574 23.5135 18.6098 23.39C18.6623 23.2664 18.6893 23.1336 18.6893 22.9993C18.6893 22.8651 18.6623 22.7323 18.6098 22.6087C18.5574 22.4852 18.4807 22.3734 18.3841 22.2801C18.2876 22.1868 18.1733 22.1138 18.048 22.0655C17.9227 22.0172 17.7889 21.9946 17.6547 21.9991H16.3834Z" fill="white"/>
</svg>
