<svg width="20" height="20" viewBox="0 0 20 20" fill="none" xmlns="http://www.w3.org/2000/svg">
<path d="M0.807039 1.66625H2.20046L4.28922 11.0793C3.76888 11.3274 3.33136 11.7204 3.02928 12.2109C2.72719 12.7015 2.57339 13.2688 2.58636 13.8445C2.55115 14.5957 2.81484 15.3303 3.31989 15.8881C3.82493 16.4458 4.53034 16.7814 5.28218 16.8216H16.344C16.4559 16.8253 16.5673 16.8065 16.6717 16.7663C16.7762 16.7261 16.8714 16.6653 16.9519 16.5876C17.0323 16.5098 17.0963 16.4167 17.1399 16.3138C17.1836 16.2109 17.2061 16.1003 17.2061 15.9885C17.2061 15.8767 17.1836 15.7661 17.1399 15.6631C17.0963 15.5602 17.0323 15.4671 16.9519 15.3894C16.8714 15.3117 16.7762 15.2509 16.6717 15.2107C16.5673 15.1705 16.4559 15.1517 16.344 15.1554H5.28127C4.97417 15.1104 4.69604 14.9494 4.5042 14.7057C4.31235 14.462 4.2214 14.1541 4.25009 13.8454C4.22105 13.5373 4.31126 13.2297 4.50219 12.9859C4.69313 12.7422 4.97028 12.5807 5.27672 12.5346H16.344C16.5158 12.5347 16.6834 12.4818 16.8239 12.3832C16.9645 12.2846 17.0712 12.1451 17.1294 11.9837L19.9509 4.17427C19.9961 4.04843 20.0104 3.91357 19.9925 3.78106C19.9746 3.64855 19.9251 3.52228 19.8481 3.41291C19.771 3.30355 19.6688 3.21429 19.55 3.15267C19.4312 3.09105 19.2993 3.05889 19.1654 3.05889H4.21823L3.68489 0.653593C3.64402 0.46824 3.54098 0.302393 3.39284 0.183527C3.2447 0.0646614 3.06035 -8.99797e-05 2.87032 9.38468e-08H0.807039C0.59058 0.00714242 0.385377 0.0980469 0.234784 0.253508C0.08419 0.40897 0 0.616813 0 0.833126C0 1.04944 0.08419 1.25728 0.234784 1.41274C0.385377 1.56821 0.59058 1.65911 0.807039 1.66625ZM17.974 4.72696L15.7579 10.8702H5.95022L4.58502 4.72696H17.974Z" fill="#333333"/>
<path d="M5.95573 18.3325C5.73927 18.3396 5.53407 18.4306 5.38347 18.5861C5.23287 18.7417 5.14868 18.9496 5.14868 19.166C5.14868 19.3825 5.23287 19.5904 5.38347 19.746C5.53407 19.9015 5.73927 19.9925 5.95573 19.9996H7.01515C7.12701 20.0033 7.23847 19.9845 7.3429 19.9442C7.44734 19.904 7.5426 19.8432 7.62304 19.7654C7.70348 19.6877 7.76744 19.5945 7.81112 19.4916C7.85481 19.3886 7.87732 19.2779 7.87732 19.166C7.87732 19.0542 7.85481 18.9435 7.81112 18.8405C7.76744 18.7376 7.70348 18.6444 7.62304 18.5667C7.5426 18.4889 7.44734 18.4281 7.3429 18.3878C7.23847 18.3476 7.12701 18.3288 7.01515 18.3325H5.95573Z" fill="#333333"/>
<path d="M13.6528 18.3325C13.4363 18.3396 13.2311 18.4306 13.0805 18.5861C12.9299 18.7417 12.8457 18.9496 12.8457 19.166C12.8457 19.3825 12.9299 19.5904 13.0805 19.746C13.2311 19.9015 13.4363 19.9925 13.6528 19.9996H14.7122C14.824 20.0033 14.9355 19.9845 15.0399 19.9442C15.1444 19.904 15.2396 19.8432 15.3201 19.7654C15.4005 19.6877 15.4645 19.5945 15.5081 19.4916C15.5518 19.3886 15.5743 19.2779 15.5743 19.166C15.5743 19.0542 15.5518 18.9435 15.5081 18.8405C15.4645 18.7376 15.4005 18.6444 15.3201 18.5667C15.2396 18.4889 15.1444 18.4281 15.0399 18.3878C14.9355 18.3476 14.824 18.3288 14.7122 18.3325H13.6528Z" fill="#333333"/>
</svg>
