<svg width="6" height="10" viewBox="0 0 6 10" fill="none" xmlns="http://www.w3.org/2000/svg">
<path d="M2.27421 1.37177V2.05023C1.79411 2.1334 1.3626 2.39341 1.06473 2.77901C0.766863 3.1646 0.624264 3.64779 0.665044 4.13333C0.705824 4.61886 0.927024 5.0715 1.28504 5.402C1.64305 5.73251 2.11189 5.91691 2.59914 5.91883H3.57392C3.74615 5.91883 3.91133 5.98725 4.03311 6.10903C4.1549 6.23082 4.22331 6.39599 4.22331 6.56822C4.22331 6.74044 4.1549 6.90562 4.03311 7.0274C3.91133 7.14918 3.74615 7.2176 3.57392 7.2176H1.62436C1.45213 7.2176 1.28695 7.28602 1.16517 7.4078C1.04338 7.52958 0.974964 7.69476 0.974964 7.86698C0.974964 8.03921 1.04338 8.20438 1.16517 8.32617C1.28695 8.44795 1.45213 8.51637 1.62436 8.51637H2.27052V9.16252C2.27052 9.33475 2.33894 9.49992 2.46072 9.6217C2.58251 9.74349 2.74768 9.8119 2.91991 9.8119C3.09214 9.8119 3.25732 9.74349 3.3791 9.6217C3.50089 9.49992 3.5693 9.33475 3.5693 9.16252V8.51637C4.08612 8.51637 4.58176 8.31107 4.9472 7.94563C5.31264 7.5802 5.51794 7.08456 5.51794 6.56776C5.51794 6.05095 5.31264 5.55532 4.9472 5.18988C4.58176 4.82444 4.08612 4.61914 3.5693 4.61914H2.59822C2.42599 4.61914 2.26081 4.55073 2.13902 4.42894C2.01724 4.30716 1.94882 4.14199 1.94882 3.96976C1.94882 3.79753 2.01724 3.63236 2.13902 3.51058C2.26081 3.38879 2.42599 3.32038 2.59822 3.32038H4.54685C4.71908 3.32038 4.88426 3.25196 5.00605 3.13018C5.12783 3.00839 5.19625 2.84322 5.19625 2.67099C5.19625 2.49877 5.12783 2.33359 5.00605 2.21181C4.88426 2.09003 4.71908 2.02161 4.54685 2.02161H3.573V1.37546C3.573 1.20323 3.50458 1.03806 3.3828 0.916275C3.26101 0.794492 3.09583 0.726074 2.9236 0.726074C2.75137 0.726074 2.5862 0.794492 2.46441 0.916275C2.34263 1.03806 2.27421 1.20323 2.27421 1.37546V1.37177Z" fill="#FBB03B"/>
</svg>
