<svg width="18" height="19" viewBox="0 0 18 19" fill="none" xmlns="http://www.w3.org/2000/svg">
<path d="M17.224 2.56541L9.10741 0.204181C8.98695 0.168268 8.85864 0.168268 8.73818 0.204181L0.61512 2.56541C0.480983 2.6054 0.363459 2.68786 0.280224 2.80039C0.19699 2.91293 0.152548 3.04944 0.153582 3.18941V10.2796C0.153582 16.4503 8.41326 18.5872 8.7668 18.6722C8.87328 18.7003 8.98524 18.7003 9.09172 18.6722C9.59849 18.542 17.692 16.3922 17.692 10.2796V3.18941C17.6926 3.04861 17.6473 2.91146 17.5628 2.79883C17.4783 2.68619 17.3594 2.60423 17.224 2.56541ZM16.3932 10.2786C16.3932 15.0205 10.0148 17.0669 8.9228 17.3688C7.83172 17.0669 1.45235 15.0306 1.45235 10.2786V3.67956L8.9228 1.50387L16.3932 3.67679V10.2786Z" fill="#FBB03B"/>
<path d="M8.27421 5.37177V6.05023C7.79411 6.1334 7.3626 6.39341 7.06473 6.77901C6.76686 7.1646 6.62426 7.64779 6.66504 8.13333C6.70582 8.61886 6.92702 9.0715 7.28504 9.402C7.64305 9.73251 8.11189 9.91691 8.59914 9.91883H9.57392C9.74615 9.91883 9.91133 9.98725 10.0331 10.109C10.1549 10.2308 10.2233 10.396 10.2233 10.5682C10.2233 10.7404 10.1549 10.9056 10.0331 11.0274C9.91133 11.1492 9.74615 11.2176 9.57392 11.2176H7.62436C7.45213 11.2176 7.28695 11.286 7.16517 11.4078C7.04338 11.5296 6.97496 11.6948 6.97496 11.867C6.97496 12.0392 7.04338 12.2044 7.16517 12.3262C7.28695 12.448 7.45213 12.5164 7.62436 12.5164H8.27052V13.1625C8.27052 13.3347 8.33894 13.4999 8.46072 13.6217C8.58251 13.7435 8.74768 13.8119 8.91991 13.8119C9.09214 13.8119 9.25732 13.7435 9.3791 13.6217C9.50089 13.4999 9.5693 13.3347 9.5693 13.1625V12.5164C10.0861 12.5164 10.5818 12.3111 10.9472 11.9456C11.3126 11.5802 11.5179 11.0846 11.5179 10.5678C11.5179 10.051 11.3126 9.55532 10.9472 9.18988C10.5818 8.82444 10.0861 8.61914 9.5693 8.61914H8.59822C8.42599 8.61914 8.26081 8.55073 8.13902 8.42894C8.01724 8.30716 7.94882 8.14199 7.94882 7.96976C7.94882 7.79753 8.01724 7.63236 8.13902 7.51058C8.26081 7.38879 8.42599 7.32038 8.59822 7.32038H10.5469C10.7191 7.32038 10.8843 7.25196 11.006 7.13018C11.1278 7.00839 11.1962 6.84322 11.1962 6.67099C11.1962 6.49877 11.1278 6.33359 11.006 6.21181C10.8843 6.09003 10.7191 6.02161 10.5469 6.02161H9.573V5.37546C9.573 5.20323 9.50458 5.03806 9.3828 4.91627C9.26101 4.79449 9.09583 4.72607 8.9236 4.72607C8.75137 4.72607 8.5862 4.79449 8.46441 4.91627C8.34263 5.03806 8.27421 5.20323 8.27421 5.37546V5.37177Z" fill="#FBB03B"/>
</svg>
