<svg width="29" height="31" viewBox="0 0 29 31" fill="none" xmlns="http://www.w3.org/2000/svg">
<path d="M27.546 3.99844L14.5018 0.0450776C14.3078 -0.0150259 14.1013 -0.0150259 13.9073 0.0450776L0.86503 3.99844C0.650172 4.0662 0.462005 4.20437 0.32847 4.39246C0.194936 4.58054 0.123154 4.8085 0.123783 5.04248V16.9137C0.123783 27.2427 13.3914 30.8204 13.9597 30.9672C14.1311 31.0126 14.3109 31.0108 14.4814 30.9621C15.2955 30.7495 28.297 27.1495 28.297 16.9137V5.04248C28.297 4.8072 28.2238 4.57827 28.0884 4.39002C27.953 4.20178 27.7627 4.06438 27.546 3.99844ZM26.2102 16.9137C26.2102 24.8539 15.9639 28.2796 14.2104 28.786C12.4617 28.2796 2.21054 24.8701 2.21054 16.9137V5.86374L14.2104 2.22024L26.2102 5.85867V16.9137Z" fill="#333333"/>
<path d="M13.1659 8.70233V9.84257C12.3907 9.97748 11.6926 10.4114 11.2102 11.0582C10.7278 11.705 10.4965 12.5172 10.5622 13.3336C10.6279 14.1499 10.9859 14.9106 11.5649 15.4646C12.1439 16.0185 12.9017 16.3251 13.6876 16.3235H15.2526C15.5294 16.3235 15.7947 16.4381 15.9904 16.642C16.1861 16.846 16.296 17.1226 16.296 17.4111C16.296 17.6995 16.1861 17.9761 15.9904 18.1801C15.7947 18.3841 15.5294 18.4987 15.2526 18.4987H12.1235C11.8468 18.4987 11.5814 18.6132 11.3857 18.8172C11.1901 19.0212 11.0801 19.2978 11.0801 19.5862C11.0801 19.8747 11.1901 20.1513 11.3857 20.3553C11.5814 20.5592 11.8468 20.6738 12.1235 20.6738H13.1659V21.7614C13.1659 22.0498 13.2758 22.3265 13.4715 22.5304C13.6672 22.7344 13.9326 22.849 14.2093 22.849C14.486 22.849 14.7514 22.7344 14.947 22.5304C15.1427 22.3265 15.2526 22.0498 15.2526 21.7614V20.6667C16.0828 20.6667 16.879 20.323 17.466 19.7111C18.053 19.0992 18.3828 18.2693 18.3828 17.404C18.3828 16.5387 18.053 15.7088 17.466 15.0969C16.879 14.485 16.0828 14.1412 15.2526 14.1412H13.6886C13.4118 14.1412 13.1465 14.0267 12.9508 13.8227C12.7551 13.6187 12.6452 13.3421 12.6452 13.0537C12.6452 12.7652 12.7551 12.4886 12.9508 12.2846C13.1465 12.0807 13.4118 11.9661 13.6886 11.9661H16.8187C17.0954 11.9661 17.3608 11.8515 17.5564 11.6475C17.7521 11.4436 17.862 11.1669 17.862 10.8785C17.862 10.5901 17.7521 10.3134 17.5564 10.1095C17.3608 9.9055 17.0954 9.79092 16.8187 9.79092H15.2536V8.70233C15.2536 8.5595 15.2266 8.41808 15.1742 8.28613C15.1218 8.15418 15.0449 8.03428 14.948 7.93329C14.8511 7.8323 14.7361 7.75219 14.6095 7.69753C14.4829 7.64288 14.3473 7.61475 14.2102 7.61475C14.0732 7.61475 13.9375 7.64288 13.811 7.69753C13.6844 7.75219 13.5694 7.8323 13.4725 7.93329C13.3756 8.03428 13.2987 8.15418 13.2463 8.28613C13.1939 8.41808 13.1669 8.5595 13.1669 8.70233H13.1659Z" fill="#333333"/>
</svg>
