<svg width="9" height="19" viewBox="0 0 9 19" fill="none" xmlns="http://www.w3.org/2000/svg">
<path d="M8.11448 0.999979H6.09218C5.58507 0.968035 5.07769 1.05733 4.60429 1.26183C4.13088 1.46632 3.70247 1.78127 3.34794 2.18542C2.99342 2.58957 2.72105 3.07351 2.5492 3.60459C2.37735 4.13566 2.31003 4.70152 2.35178 5.26397V7.22996H0.318677C0.234418 7.22996 0.153609 7.26715 0.0940291 7.33335C0.0344488 7.39955 0.000976562 7.48934 0.000976562 7.58296V10.432C0.000976562 10.5256 0.0344488 10.6154 0.0940291 10.6816C0.153609 10.7478 0.234418 10.7849 0.318677 10.7849H2.35178V17.9729C2.35178 18.0665 2.38525 18.1563 2.44483 18.2225C2.50441 18.2887 2.58522 18.3259 2.66948 18.3259H5.32268C5.40694 18.3259 5.48775 18.2887 5.54733 18.2225C5.60691 18.1563 5.64038 18.0665 5.64038 17.9729V10.7849H8.01728C8.10154 10.7849 8.18235 10.7478 8.24193 10.6816C8.30151 10.6154 8.33498 10.5256 8.33498 10.432V7.58396C8.33475 7.49042 8.3012 7.40079 8.24167 7.33464C8.18214 7.2685 8.10147 7.23122 8.01728 7.23096H5.64128V5.56297C5.64128 4.76297 5.81318 4.35497 6.75188 4.35497H8.11448C8.15636 4.35497 8.19782 4.34577 8.23648 4.32791C8.27514 4.31004 8.31025 4.28386 8.33977 4.25087C8.3693 4.21788 8.39266 4.17873 8.40852 4.13567C8.42438 4.09261 8.43242 4.04649 8.43219 3.99997V1.35698C8.43266 1.31029 8.4248 1.26395 8.40904 1.22066C8.39329 1.17737 8.36996 1.13798 8.34041 1.10478C8.31087 1.07158 8.27568 1.04522 8.2369 1.02723C8.19812 1.00924 8.15651 0.999976 8.11448 0.999979Z" fill="white"/>
</svg>
