<svg width="38" height="22" viewBox="0 0 38 22" fill="none" xmlns="http://www.w3.org/2000/svg">
<path d="M36.7111 9.24104L35.0405 5.40489C34.7437 4.72155 34.2499 4.1397 33.6208 3.73186C32.9917 3.32401 32.2551 3.10821 31.5028 3.11136H28.7984V2.13313C28.7979 1.74426 28.6414 1.37146 28.3632 1.09648C28.085 0.821506 27.7079 0.666798 27.3145 0.666284H8.44657C8.31637 0.66538 8.18727 0.690066 8.0668 0.738906C7.94632 0.787746 7.83687 0.859767 7.74479 0.950784C7.65272 1.0418 7.57986 1.15 7.53045 1.26909C7.48105 1.38818 7.45608 1.51579 7.45699 1.64451C7.46154 1.90254 7.56725 2.14876 7.75186 2.33124C7.93647 2.51373 8.18554 2.61824 8.44657 2.62273H26.7436V9.84332C26.7419 10.0562 26.783 10.2673 26.8646 10.4643C26.9463 10.6613 27.0667 10.8402 27.219 10.9908C27.3713 11.1413 27.5523 11.2604 27.7516 11.341C27.9509 11.4217 28.1644 11.4624 28.3798 11.4607H34.9639V16.0109C34.964 16.0553 34.9553 16.0993 34.9381 16.1404C34.921 16.1815 34.8958 16.2188 34.864 16.2502C34.8322 16.2816 34.7945 16.3065 34.7529 16.3235C34.7114 16.3404 34.6669 16.3491 34.6219 16.3489H33.4014C33.0806 15.8015 32.6203 15.3468 32.0663 15.0301C31.5123 14.7134 30.8839 14.5458 30.244 14.544C29.6056 14.5538 28.9804 14.7247 28.4278 15.0406C27.8752 15.3565 27.4134 15.8069 27.0865 16.3489H16.9283C16.6075 15.8015 16.1472 15.3468 15.5932 15.0301C15.0392 14.7134 14.4108 14.5458 13.7709 14.544C13.1326 14.5538 12.5074 14.7247 11.9547 15.0406C11.4021 15.3565 10.9404 15.8069 10.6134 16.3489H7.11403C6.98151 16.3448 6.84951 16.367 6.72586 16.4143C6.60221 16.4616 6.48943 16.533 6.39422 16.6242C6.299 16.7154 6.2233 16.8245 6.1716 16.9452C6.1199 17.0659 6.09326 17.1956 6.09326 17.3267C6.09326 17.4577 6.1199 17.5875 6.1716 17.7081C6.2233 17.8288 6.299 17.938 6.39422 18.0292C6.48943 18.1204 6.60221 18.1918 6.72586 18.239C6.84951 18.2863 6.98151 18.3085 7.11403 18.3044H10.1191C10.16 19.2348 10.5626 20.1137 11.2431 20.7578C11.9235 21.4019 12.8293 21.7614 13.7714 21.7614C14.7135 21.7614 15.6192 21.4019 16.2996 20.7578C16.9801 20.1137 17.3827 19.2348 17.4236 18.3044H26.5922C26.6331 19.2348 27.0357 20.1137 27.7162 20.7578C28.3966 21.4019 29.3024 21.7614 30.2444 21.7614C31.1865 21.7614 32.0923 21.4019 32.7727 20.7578C33.4532 20.1137 33.8558 19.2348 33.8967 18.3044H34.6956C35.3102 18.3019 35.8988 18.0594 36.3334 17.6298C36.7679 17.2003 37.0132 16.6184 37.0158 16.0109V10.7458C37.0066 10.2302 36.9034 9.72043 36.7111 9.24104ZM13.7709 19.8033C13.4405 19.8033 13.1175 19.7065 12.8427 19.525C12.568 19.3435 12.3539 19.0856 12.2274 18.7839C12.101 18.4821 12.0679 18.1501 12.1324 17.8297C12.1968 17.5094 12.3559 17.2151 12.5896 16.9842C12.8232 16.7532 13.1209 16.5959 13.445 16.5322C13.769 16.4685 14.1049 16.5012 14.4102 16.6262C14.7154 16.7512 14.9764 16.9629 15.1599 17.2344C15.3435 17.506 15.4415 17.8253 15.4415 18.1519C15.4369 18.5885 15.2594 19.0059 14.9471 19.3146C14.6348 19.6233 14.2125 19.7988 13.7709 19.8033ZM30.244 19.8033C29.9135 19.8033 29.5906 19.7065 29.3158 19.525C29.0411 19.3435 28.827 19.0856 28.7005 18.7839C28.5741 18.4821 28.541 18.1501 28.6055 17.8297C28.6699 17.5094 28.829 17.2151 29.0627 16.9842C29.2963 16.7532 29.594 16.5959 29.918 16.5322C30.2421 16.4685 30.578 16.5012 30.8833 16.6262C31.1885 16.7512 31.4494 16.9629 31.633 17.2344C31.8166 17.506 31.9146 17.8253 31.9146 18.1519C31.9099 18.5885 31.7325 19.0059 31.4202 19.3146C31.1079 19.6233 30.6856 19.7988 30.244 19.8033ZM28.7601 5.09889H31.4615C31.8185 5.09447 32.1685 5.19609 32.4664 5.39059C32.7643 5.58509 32.9962 5.86351 33.1321 6.1898L34.5806 9.50624H28.7601V5.09889Z" fill="#333333"/>
<path d="M5.59239 6.72151H12.5922C12.7247 6.72564 12.8567 6.7034 12.9804 6.65612C13.104 6.60884 13.2168 6.53747 13.312 6.44627C13.4072 6.35506 13.4829 6.24587 13.5346 6.12518C13.5863 6.00449 13.613 5.87476 13.613 5.74369C13.613 5.61262 13.5863 5.48289 13.5346 5.3622C13.4829 5.2415 13.4072 5.13231 13.312 5.04111C13.2168 4.9499 13.104 4.87854 12.9804 4.83126C12.8567 4.78397 12.7247 4.76174 12.5922 4.76587H5.59239C5.46218 4.76496 5.33309 4.78965 5.21261 4.83849C5.09214 4.88734 4.98268 4.95937 4.89061 5.05039C4.79854 5.14142 4.72568 5.24962 4.67627 5.36873C4.62686 5.48783 4.60189 5.61545 4.60281 5.74417C4.6076 6.00206 4.71343 6.24805 4.89801 6.43035C5.0826 6.61264 5.33152 6.71702 5.59239 6.72151Z" fill="#333333"/>
<path d="M3.72838 10.4818H10.7282C10.8607 10.4859 10.9927 10.4637 11.1163 10.4164C11.24 10.3691 11.3528 10.2978 11.448 10.2066C11.5432 10.1154 11.6189 10.0062 11.6706 9.88551C11.7223 9.76483 11.7489 9.63512 11.7489 9.50407C11.7489 9.37301 11.7223 9.2433 11.6706 9.12262C11.6189 9.00194 11.5432 8.89277 11.448 8.80157C11.3528 8.71038 11.24 8.63902 11.1163 8.59175C10.9927 8.54447 10.8607 8.52224 10.7282 8.52636H3.72838C3.59817 8.52546 3.46908 8.55014 3.3486 8.59898C3.22813 8.64782 3.11867 8.71984 3.0266 8.81085C2.93452 8.90187 2.86167 9.01006 2.81226 9.12915C2.76285 9.24824 2.73788 9.37584 2.73879 9.50455C2.74359 9.76241 2.84942 10.0084 3.034 10.1906C3.21858 10.3729 3.46751 10.4773 3.72838 10.4818Z" fill="#333333"/>
<path d="M9.89078 13.2649C9.89169 13.1362 9.86672 13.0086 9.81731 12.8895C9.7679 12.7704 9.69505 12.6622 9.60297 12.5711C9.5109 12.4801 9.40144 12.4081 9.28097 12.3592C9.16049 12.3104 9.0314 12.2857 8.90119 12.2866H1.86403C1.73151 12.2825 1.59951 12.3047 1.47586 12.352C1.35221 12.3993 1.23943 12.4706 1.14422 12.5619C1.049 12.6531 0.9733 12.7622 0.921601 12.8829C0.869902 13.0036 0.843262 13.1333 0.843262 13.2644C0.843262 13.3955 0.869902 13.5252 0.921601 13.6459C0.9733 13.7666 1.049 13.8758 1.14422 13.967C1.23943 14.0582 1.35221 14.1295 1.47586 14.1768C1.59951 14.2241 1.73151 14.2463 1.86403 14.2422H8.86385C8.99756 14.2502 9.13148 14.2306 9.25716 14.1848C9.38285 14.139 9.49756 14.068 9.59407 13.9761C9.69057 13.8843 9.76676 13.7737 9.81783 13.6513C9.8689 13.5288 9.89374 13.3973 9.89078 13.2649Z" fill="#333333"/>
</svg>
