<svg width="17" height="17" viewBox="0 0 17 17" fill="none" xmlns="http://www.w3.org/2000/svg">
<path d="M5.48761 6.84606C5.66437 6.84606 5.83389 6.91628 5.95887 7.04127C6.08386 7.16625 6.15408 7.33577 6.15408 7.51253C6.15408 7.68929 6.22429 7.85881 6.34928 7.98379C6.47426 8.10878 6.64378 8.179 6.82054 8.179C6.99729 8.179 7.16681 8.10878 7.2918 7.98379C7.41678 7.85881 7.487 7.68929 7.487 7.51253C7.47576 6.98957 7.26013 6.49182 6.88631 6.12595C6.51249 5.76007 6.01023 5.55518 5.48715 5.55518C4.96408 5.55518 4.46181 5.76007 4.08799 6.12595C3.71417 6.49182 3.49854 6.98957 3.4873 7.51253C3.4873 7.68929 3.55752 7.85881 3.68251 7.98379C3.80749 8.10878 3.97701 8.179 4.15377 8.179C4.33052 8.179 4.50004 8.10878 4.62503 7.98379C4.75001 7.85881 4.82023 7.68929 4.82023 7.51253C4.82023 7.42493 4.8375 7.33819 4.87105 7.25727C4.9046 7.17635 4.95377 7.10284 5.01576 7.04094C5.07774 6.97904 5.15132 6.92997 5.23229 6.89653C5.31325 6.86309 5.40001 6.84594 5.48761 6.84606Z" fill="#FBB03B"/>
<path d="M10.8214 5.51367C10.2908 5.51367 9.78206 5.72442 9.40692 6.09956C9.03179 6.4747 8.82104 6.9835 8.82104 7.51402C8.82104 7.69078 8.89126 7.86031 9.01625 7.98529C9.14123 8.11028 9.31075 8.1805 9.48751 8.1805C9.66427 8.1805 9.83378 8.11028 9.95877 7.98529C10.0838 7.86031 10.154 7.69078 10.154 7.51402C10.154 7.33726 10.2242 7.16774 10.3492 7.04275C10.4742 6.91777 10.6437 6.84755 10.8204 6.84755C10.9972 6.84755 11.1667 6.91777 11.2917 7.04275C11.4167 7.16774 11.4869 7.33726 11.4869 7.51402C11.4869 7.69078 11.5571 7.86031 11.6821 7.98529C11.8071 8.11028 11.9766 8.1805 12.1534 8.1805C12.3301 8.1805 12.4996 8.11028 12.6246 7.98529C12.7496 7.86031 12.8198 7.69078 12.8198 7.51402C12.8198 6.98382 12.6093 6.4753 12.2346 6.10021C11.8599 5.72513 11.3516 5.51416 10.8214 5.51367Z" fill="#FBB03B"/>
<path d="M8.15433 0.846191C6.57203 0.846191 5.02525 1.3154 3.70962 2.19449C2.39398 3.07358 1.36856 4.32306 0.763041 5.78493C0.157519 7.2468 -0.000913009 8.8554 0.307779 10.4073C0.616472 11.9592 1.37842 13.3847 2.49728 14.5036C3.61614 15.6225 5.04165 16.3844 6.59355 16.6931C8.14546 17.0018 9.75404 16.8434 11.2159 16.2379C12.6778 15.6323 13.9272 14.6069 14.8063 13.2913C15.6854 11.9756 16.1546 10.4288 16.1546 8.84652C16.1546 7.7959 15.9477 6.75557 15.5456 5.78493C15.1436 4.81428 14.5543 3.93233 13.8114 3.18943C13.0685 2.44653 12.1865 1.85723 11.2159 1.45518C10.2453 1.05313 9.20494 0.846191 8.15433 0.846191ZM8.15433 15.513C6.83583 15.513 5.54695 15.122 4.45066 14.3895C3.35437 13.657 2.49992 12.6158 1.99535 11.3977C1.49078 10.1795 1.35876 8.83912 1.61599 7.54595C1.87322 6.25278 2.50813 5.06493 3.44045 4.13261C4.37277 3.20028 5.56061 2.56536 6.85377 2.30814C8.14693 2.05091 9.48733 2.18293 10.7055 2.6875C11.9236 3.19207 12.9648 4.04653 13.6973 5.14282C14.4298 6.23912 14.8208 7.52801 14.8208 8.84652C14.8208 9.72197 14.6483 10.5889 14.3133 11.3977C13.9783 12.2065 13.4872 12.9414 12.8682 13.5604C12.2492 14.1795 11.5143 14.6705 10.7055 15.0055C9.89666 15.3406 9.02978 15.513 8.15433 15.513Z" fill="#FBB03B"/>
<path d="M10.3483 10.3732L9.95878 10.7646C9.47216 11.2281 8.82582 11.4867 8.15372 11.4867C7.48162 11.4867 6.83529 11.2281 6.34867 10.7646L5.95913 10.3732C5.83278 10.2543 5.66511 10.1893 5.49166 10.192C5.31821 10.1946 5.15261 10.2647 5.02994 10.3874C4.90728 10.51 4.8372 10.6756 4.83455 10.8491C4.8319 11.0225 4.8969 11.1902 5.01576 11.3165L5.40714 11.7061C5.76788 12.0678 6.19647 12.3548 6.66833 12.5507C7.14019 12.7465 7.64606 12.8473 8.15695 12.8473C8.66784 12.8473 9.17372 12.7465 9.64558 12.5507C10.1174 12.3548 10.546 12.0678 10.9068 11.7061L11.2981 11.3165C11.3632 11.2553 11.4154 11.1816 11.4514 11.0999C11.4875 11.0181 11.5068 10.93 11.5082 10.8406C11.5095 10.7513 11.4929 10.6626 11.4594 10.5798C11.4258 10.497 11.376 10.4217 11.3128 10.3586C11.2496 10.2954 11.1744 10.2455 11.0915 10.212C11.0087 10.1784 10.92 10.1618 10.8307 10.1632C10.7413 10.1645 10.6532 10.1838 10.5714 10.2199C10.4897 10.256 10.416 10.3081 10.3548 10.3732H10.3483Z" fill="#FBB03B"/>
</svg>
