<svg width="16" height="18" viewBox="0 0 16 18" fill="none" xmlns="http://www.w3.org/2000/svg">
<path d="M11.1994 0H4.83282C3.58894 0.001588 2.39642 0.551323 1.51686 1.52861C0.637305 2.50589 0.142542 3.83091 0.141113 5.213L0.141113 12.286C0.142304 13.6683 0.636962 14.9935 1.51654 15.971C2.39613 16.9485 3.58879 17.4984 4.83282 17.5H11.1985C12.4426 17.4987 13.6353 16.9491 14.5151 15.9717C15.3948 14.9944 15.8897 13.6693 15.8911 12.287V5.213C15.8897 3.83091 15.395 2.50589 14.5154 1.52861C13.6358 0.551323 12.4433 0.001588 11.1994 0V0ZM14.3071 12.287C14.3071 13.2028 13.9797 14.0811 13.3969 14.7286C12.8141 15.3762 12.0236 15.74 11.1994 15.74H4.83282C4.00861 15.74 3.21815 15.3762 2.63534 14.7286C2.05253 14.0811 1.72512 13.2028 1.72512 12.287V5.213C1.72512 4.29721 2.05253 3.41892 2.63534 2.77136C3.21815 2.1238 4.00861 1.76 4.83282 1.76H11.1985C11.6067 1.75987 12.0109 1.84909 12.3881 2.02256C12.7652 2.19603 13.1079 2.45035 13.3966 2.77101C13.6853 3.09166 13.9143 3.47236 14.0705 3.89136C14.2267 4.31037 14.3071 4.75946 14.3071 5.213V12.286V12.287Z" fill="white"/>
<path d="M8.01604 4.22412C7.2104 4.22412 6.42284 4.48956 5.75298 4.98687C5.08311 5.48418 4.56101 6.19103 4.25271 7.01802C3.9444 7.84502 3.86372 8.75503 4.0209 9.63296C4.17807 10.5109 4.56603 11.3173 5.13571 11.9503C5.70538 12.5832 6.43119 13.0143 7.22136 13.1889C8.01152 13.3635 8.83055 13.2739 9.57486 12.9314C10.3192 12.5888 10.9554 12.0087 11.403 11.2644C11.8505 10.5202 12.0894 9.64514 12.0894 8.75C12.0883 7.55007 11.6587 6.39967 10.8951 5.55119C10.1314 4.70271 9.09601 4.22544 8.01604 4.22412ZM8.01604 11.5159C7.52368 11.5159 7.04238 11.3537 6.633 11.0498C6.22361 10.7459 5.90455 10.3139 5.71613 9.80848C5.52771 9.30307 5.47841 8.74693 5.57446 8.21039C5.67051 7.67385 5.90762 7.18102 6.25577 6.7942C6.60391 6.40738 7.04748 6.14394 7.53037 6.03721C8.01327 5.93049 8.51381 5.98527 8.96869 6.19462C9.42357 6.40397 9.81237 6.75848 10.0859 7.21333C10.3594 7.66819 10.5054 8.20295 10.5054 8.75C10.5054 9.48357 10.2432 10.1871 9.77631 10.7058C9.30946 11.2245 8.67627 11.5159 8.01604 11.5159Z" fill="white"/>
<path d="M12.0976 5.34302C12.6369 5.34302 13.0741 4.85726 13.0741 4.25806C13.0741 3.65885 12.6369 3.1731 12.0976 3.1731C11.5583 3.1731 11.1211 3.65885 11.1211 4.25806C11.1211 4.85726 11.5583 5.34302 12.0976 5.34302Z" fill="white"/>
</svg>
