<svg width="15" height="16" viewBox="0 0 15 16" fill="none" xmlns="http://www.w3.org/2000/svg">
<path d="M14.7699 9.27901V15.042H11.763V9.66501C11.763 8.31402 11.3283 7.39202 10.2393 7.39202C9.90016 7.39422 9.56993 7.5128 9.29379 7.73155C9.01765 7.95029 8.8091 8.25851 8.69668 8.61402C8.61931 8.87674 8.58546 9.15287 8.59679 9.42901V15.042H5.58899C5.58899 15.042 5.62949 5.93503 5.58899 4.99103H8.59679V6.41603L8.57699 6.44803H8.59679V6.41603C8.86888 5.89036 9.26543 5.4576 9.74335 5.16476C10.2213 4.87193 10.7623 4.73022 11.3076 4.75503C13.2858 4.75503 14.7699 6.18803 14.7699 9.27901ZM2.44169 0.146051C2.22676 0.12513 2.01027 0.153722 1.80574 0.230038C1.60122 0.306354 1.41307 0.428751 1.25308 0.58957C1.09309 0.750389 0.964686 0.946168 0.875917 1.16466C0.787147 1.38314 0.739919 1.61964 0.737186 1.85934C0.734454 2.09904 0.776277 2.33678 0.860037 2.5577C0.943798 2.77861 1.06769 2.97794 1.22397 3.14321C1.38025 3.30848 1.56554 3.43614 1.76826 3.51818C1.97098 3.60023 2.18676 3.6349 2.40209 3.62004H2.42189C2.63702 3.63965 2.85348 3.60969 3.0577 3.53203C3.26193 3.45438 3.44952 3.3307 3.60873 3.16875C3.76794 3.0068 3.89534 2.81007 3.98295 2.59087C4.07055 2.37167 4.11647 2.13474 4.11784 1.89491C4.11921 1.65508 4.07599 1.41752 3.99089 1.1971C3.90579 0.976694 3.78065 0.778182 3.62329 0.614005C3.46594 0.449828 3.27977 0.323522 3.07645 0.243C2.87312 0.162477 2.65703 0.129471 2.44169 0.146051ZM0.919789 15.042H3.92579V4.98803H0.919789V15.042Z" fill="white"/>
</svg>
