<svg width="33" height="32" viewBox="0 0 33 32" fill="none" xmlns="http://www.w3.org/2000/svg">
<path d="M9.56732 21.6376C10.1057 21.6376 10.5422 21.2111 10.5422 20.685C10.5422 20.1589 10.1057 19.7324 9.56732 19.7324C9.02889 19.7324 8.59241 20.1589 8.59241 20.685C8.59241 21.2111 9.02889 21.6376 9.56732 21.6376Z" fill="#333333"/>
<path d="M32.5805 0H10.7208V10.6421H0.208984V32H22.0677V21.3579H32.5805V0ZM30.88 4.55072L22.0696 13.1593V10.6421H18.8292L27.9429 1.73721L27.8673 1.66337H30.88V4.55165V4.55072ZM20.3663 21.3044C18.9058 21.0644 16.6385 20.794 15.8232 23.4782C15.1906 25.06 14.3267 26.5437 13.2583 27.8831C12.6568 28.6472 12.1368 29.4693 11.7061 30.3366H9.01086C9.00483 29.063 9.43442 27.8239 10.2314 26.816C10.6041 26.4048 11.0363 26.049 11.5143 25.7601C12.3108 25.3147 12.9887 24.6922 13.4931 23.9431C13.9975 23.194 14.3141 22.3394 14.4174 21.4484C14.7056 19.857 14.5084 18.218 13.8506 16.7352C13.2406 15.3395 13.03 13.8081 13.2413 12.3045H15.7334C15.8033 12.6442 15.8638 12.9959 15.9224 13.3669C16.2795 15.4679 16.7235 18.082 19.5812 19.5183C19.7409 19.5986 19.8448 19.654 19.9109 19.6918C20.0381 19.8209 20.1934 19.9203 20.3653 19.9826V21.3044H20.3663ZM6.53761 22.7813C6.4483 21.9338 6.50514 21.0776 6.70577 20.2484C6.94722 19.4208 7.34168 18.6434 7.86965 17.9546C9.09965 16.3154 9.76162 14.3352 9.75907 12.3027H11.5314C11.3276 14.0037 11.5759 15.7274 12.2522 17.3075C12.8084 18.5252 12.9782 19.8779 12.7396 21.1909C12.6709 21.859 12.4349 22.5003 12.0525 23.0583C11.6701 23.6162 11.1531 24.0737 10.547 24.3902C9.93031 24.7676 9.37602 25.2345 8.90316 25.7748C7.86375 27.0769 7.30245 28.6826 7.30944 30.3339H5.53149C6.35272 27.9018 6.69413 25.3396 6.53761 22.7832V22.7813ZM20.3663 18.0414H20.3597C18.2624 16.9872 17.9412 15.0968 17.6011 13.0956C17.5567 12.8343 17.5067 12.5694 17.4604 12.3054H20.3663V18.0414ZM12.4232 9.16791L20.1065 1.6606H25.6076L16.4183 10.6393H12.4232V9.16791ZM17.7003 1.66245L12.4232 6.8187V1.66245H17.7003ZM4.55466 12.3045C4.155 13.7764 3.6236 15.2112 2.9666 16.5921C2.61989 17.3971 2.25806 18.238 1.91135 19.1094V12.3045H4.55466ZM1.90947 24.9939C2.47567 22.3193 3.35599 19.7175 4.53293 17.2401C5.2995 15.6638 5.88531 14.0094 6.2797 12.3073H8.05576C8.05746 14.0123 7.49402 15.672 6.44975 17.038C5.81462 17.8801 5.34179 18.8281 5.05441 19.8358C4.80867 20.8275 4.73396 21.8523 4.83335 22.8681C4.97805 25.4035 4.61149 27.9421 3.75449 30.3394H1.91135V24.9939H1.90947ZM13.6173 30.3366C13.9092 29.8751 14.3154 29.3046 14.6508 28.8366C15.8305 27.3551 16.7751 25.7083 17.4528 23.9518C17.8354 22.6918 18.5241 22.6826 20.252 22.9724L20.3653 22.9909V30.3366H13.6173ZM22.0677 15.5103L30.8781 6.90178V12.5057L23.5197 19.6955H22.0677V15.5103ZM25.9259 19.6955L30.8781 14.8568V19.6955H25.9259Z" fill="#333333"/>
</svg>
