<svg width="35" height="37" viewBox="0 0 35 37" fill="none" xmlns="http://www.w3.org/2000/svg">
<path d="M2.90551 33.771C2.7364 33.7699 2.57288 33.7069 2.44276 33.5928C2.31263 33.4786 2.22395 33.3203 2.19181 33.1448C2.15966 32.9693 2.18603 32.7874 2.26644 32.6302C2.34684 32.4729 2.47631 32.35 2.63281 32.2822C2.78931 32.2145 2.96317 32.2062 3.12482 32.2587C3.28646 32.3113 3.42589 32.4214 3.51939 32.5703C3.61289 32.7193 3.65467 32.8979 3.63763 33.0757C3.62059 33.2536 3.54579 33.4197 3.42594 33.5458C3.35754 33.6178 3.27633 33.6747 3.18701 33.7134C3.09769 33.752 3.00202 33.7716 2.90551 33.771Z" fill="#FBB03B"/>
<path d="M6.76666 37.0002H0V35.1481H5.01565V25.6567H0V23.8057H6.76666V37.0002Z" fill="#FBB03B"/>
<path d="M17.1569 35.1105H7.92505V25.7156L8.0265 25.5107C8.5954 24.456 9.44968 23.6052 10.4795 23.0676C11.4459 22.5767 12.4997 22.3074 13.5715 22.2777C14.6433 22.2479 15.709 22.4583 16.6984 22.895C17.3355 23.1703 17.9574 23.4836 18.561 23.8334C19.0571 24.1079 19.5258 24.3696 20.0107 24.5841C20.2149 24.6632 20.4241 24.7274 20.6366 24.7761C21.0776 24.8214 21.5022 24.9764 21.8757 25.2284C22.2491 25.4804 22.5608 25.8223 22.7853 26.2261C23.0218 26.8651 23.1122 27.5541 23.0491 28.237L27.4601 28.1705L29.7478 25.4893C30.1722 24.9904 30.7668 24.6902 31.4006 24.6547C32.0344 24.6192 32.6557 24.8513 33.1276 25.3C33.5995 25.7487 33.8835 26.3772 33.9171 27.0473C33.9507 27.7173 33.7311 28.374 33.3066 28.8729L29.8574 32.9387L17.1569 35.1105ZM9.68215 33.2583H17.0169L28.9677 31.2206L32.002 27.6342C32.1144 27.5003 32.172 27.3249 32.1625 27.1462C32.1529 26.9675 32.0769 26.8001 31.951 26.6804C31.8251 26.5607 31.6595 26.4986 31.4904 26.5075C31.3213 26.5164 31.1624 26.5957 31.0484 26.728L28.2494 30.0044L17.4065 30.1781L17.3811 28.3271L21.3042 28.2659C21.3576 27.8309 21.3192 27.3888 21.1916 26.9714C21.1246 26.8106 20.5413 26.6583 20.2278 26.5768C19.9253 26.5067 19.6285 26.4116 19.3401 26.2926C18.7882 26.0459 18.2648 25.7563 17.7585 25.4753C17.213 25.1585 16.6511 24.8742 16.0755 24.6238C15.3174 24.2821 14.4996 24.1137 13.6756 24.1294C12.8517 24.1451 12.0401 24.3446 11.2942 24.715C10.6459 25.055 10.0917 25.5663 9.68519 26.1993L9.68215 33.2583Z" fill="#FBB03B"/>
<path d="M35 4.13328V2.16424L29.4203 0L18.6444 5.85673H9.34448V19.6401H30.6945V15.7363C30.9847 15.747 31.2718 15.7588 31.5518 15.7803C31.7273 15.791 31.9018 15.7985 32.0773 15.7985C33.074 15.7905 34.0622 15.6041 35 15.2472V13.2685L34.9757 13.2793C33.9377 13.7709 32.8044 13.9955 31.6684 13.9345C31.3499 13.912 31.0283 13.8981 30.6955 13.8863C30.1355 13.8713 29.5583 13.8756 28.9455 13.897C28.1025 13.927 27.1986 13.9967 26.2125 14.104L25.1341 14.222C24.865 14.2612 24.5922 14.1859 24.3757 14.0125C24.1592 13.8391 24.0167 13.5819 23.9796 13.2975C23.9425 13.0131 24.0137 12.7247 24.1777 12.4958C24.3417 12.2669 24.585 12.1163 24.8541 12.077L28.9354 11.3263C28.937 11.327 28.9387 11.3274 28.9405 11.3274C28.9422 11.3274 28.9439 11.327 28.9455 11.3263C29.3037 11.2611 29.6447 11.1164 29.9462 10.9018C30.2476 10.6872 30.5027 10.4075 30.6945 10.0812C30.9424 9.66389 31.0802 9.18406 31.0934 8.69151C31.1067 8.19895 30.995 7.71161 30.7699 7.2801C30.5449 6.84858 30.2147 6.48862 29.8136 6.23757C29.4125 5.98652 28.9551 5.85354 28.489 5.85244H22.469L29.54 2.01624L35 4.13328ZM28.49 7.70674C28.6512 7.70499 28.8094 7.75267 28.9455 7.84401C29.069 7.9261 29.1707 8.03994 29.2412 8.17489C29.3117 8.30983 29.3487 8.46148 29.3487 8.61565C29.3487 8.76982 29.3117 8.92147 29.2412 9.05642C29.1707 9.19137 29.069 9.30521 28.9455 9.38729C28.8526 9.44866 28.7492 9.4902 28.6412 9.50955L24.5599 10.2603C23.8745 10.384 23.2581 10.7755 22.8328 11.357C22.4076 11.9386 22.2046 12.6679 22.2641 13.4003C22.3236 14.1326 22.6412 14.8146 23.154 15.3111C23.6668 15.8075 24.3373 16.0822 25.0326 16.0805C25.1262 16.081 25.2196 16.076 25.3126 16.0655C25.3126 16.0655 28.1613 15.7845 28.9496 15.7545V17.7922H11.0945V7.71103L28.49 7.70674Z" fill="#FBB03B"/>
<path d="M21.0092 11.8228H19.2593V13.6729H21.0092V11.8228Z" fill="#FBB03B"/>
</svg>
