<svg width="24" height="24" viewBox="0 0 24 24" fill="none" xmlns="http://www.w3.org/2000/svg">
<path d="M8.86599 17.7341C10.8713 17.7357 12.8176 17.056 14.3857 15.8065L22.2885 23.7065C22.3816 23.7995 22.4921 23.8733 22.6138 23.9237C22.7354 23.9741 22.8658 24 22.9974 24C23.1291 24 23.2595 23.9741 23.3811 23.9237C23.5027 23.8733 23.6133 23.7995 23.7064 23.7065C23.7995 23.6134 23.8733 23.5029 23.9237 23.3813C23.9741 23.2597 24 23.1294 24 22.9978C24 22.8662 23.9741 22.7359 23.9237 22.6143C23.8733 22.4927 23.7995 22.3822 23.7064 22.2891L15.8036 14.3892C17.0555 12.8186 17.7368 10.8696 17.736 8.86139C17.7352 6.85319 17.0524 4.90475 15.7993 3.33513C14.5461 1.76552 12.797 0.667747 10.8383 0.221572C8.87956 -0.224604 6.82734 0.00725983 5.01765 0.879196C3.20796 1.75113 1.74806 3.21147 0.876996 5.02108C0.00593114 6.83069 -0.224675 8.88233 0.22294 10.8401C0.670555 12.7978 1.76986 14.5456 3.34086 15.7972C4.91185 17.0489 6.86143 17.7302 8.87035 17.7297L8.86599 17.7341ZM4.01045 4.02304C4.9708 3.06098 6.19508 2.40535 7.52833 2.13913C8.86158 1.87291 10.2439 2.00807 11.5003 2.52751C12.7566 3.04694 13.8306 3.9273 14.5863 5.05715C15.3419 6.187 15.7453 7.51556 15.7453 8.87467C15.7453 10.2338 15.3419 11.5623 14.5863 12.6922C13.8306 13.822 12.7566 14.7024 11.5003 15.2218C10.2439 15.7413 8.86158 15.8764 7.52833 15.6102C6.19508 15.344 4.9708 14.6884 4.01045 13.7263C3.36783 13.0921 2.85758 12.3367 2.50933 11.5039C2.16107 10.671 1.98174 9.77734 1.98174 8.87467C1.98174 7.97199 2.16107 7.0783 2.50933 6.24545C2.85758 5.41261 3.36783 4.65719 4.01045 4.02304Z" fill="white"/>
</svg>
