<svg width="21" height="20" viewBox="0 0 21 20" fill="none" xmlns="http://www.w3.org/2000/svg">
<path d="M7.88833 14.7784C9.55942 14.7797 11.1814 14.2133 12.4881 13.1721L19.0738 19.7554C19.1514 19.8329 19.2435 19.8945 19.3448 19.9364C19.4462 19.9784 19.5548 20 19.6645 20C19.7742 20 19.8829 19.9784 19.9843 19.9364C20.0856 19.8945 20.1777 19.8329 20.2553 19.7554C20.3329 19.6778 20.3944 19.5858 20.4364 19.4844C20.4784 19.3831 20.5 19.2745 20.5 19.1648C20.5 19.0552 20.4784 18.9466 20.4364 18.8452C20.3944 18.7439 20.3329 18.6518 20.2553 18.5743L13.6696 11.991C14.7129 10.6821 15.2807 9.058 15.28 7.3845C15.2794 5.71099 14.7103 4.08729 13.666 2.77928C12.6218 1.47127 11.1642 0.556456 9.5319 0.184643C7.89963 -0.18717 6.18945 0.00604986 4.68138 0.732664C3.1733 1.45928 1.95672 2.67622 1.23083 4.18423C0.504943 5.69224 0.312771 7.40194 0.685783 9.03338C1.0588 10.6648 1.97489 12.1213 3.28405 13.1644C4.59321 14.2074 6.21786 14.7752 7.89196 14.7747L7.88833 14.7784ZM3.84204 3.35253C4.64233 2.55082 5.66256 2.00446 6.77361 1.78261C7.88465 1.56076 9.03656 1.67339 10.0835 2.10626C11.1305 2.53912 12.0255 3.27275 12.6552 4.21429C13.2849 5.15584 13.6211 6.26297 13.6211 7.39555C13.6211 8.52814 13.2849 9.63527 12.6552 10.5768C12.0255 11.5184 11.1305 12.252 10.0835 12.6849C9.03656 13.1177 7.88465 13.2303 6.77361 13.0085C5.66256 12.7867 4.64233 12.2403 3.84204 11.4386C3.30652 10.9101 2.88132 10.2806 2.59111 9.58656C2.30089 8.89253 2.15145 8.14779 2.15145 7.39555C2.15145 6.64332 2.30089 5.89858 2.59111 5.20455C2.88132 4.51051 3.30652 3.881 3.84204 3.35253Z" fill="#333333"/>
</svg>
