<svg width="17" height="13" viewBox="0 0 17 13" fill="none" xmlns="http://www.w3.org/2000/svg">
<path d="M16.0617 5.53864L15.1858 3.50786C15.0308 3.14555 14.7726 2.83692 14.4432 2.62054C14.1139 2.40416 13.7281 2.28962 13.3341 2.29124H11.9208V1.77339C11.9206 1.56758 11.8387 1.37026 11.6932 1.22473C11.5477 1.0792 11.3503 0.997328 11.1445 0.997084H1.26761C1.19947 0.996593 1.13191 1.00965 1.06886 1.0355C1.00581 1.06135 0.948528 1.09948 0.900343 1.14766C0.852159 1.19585 0.814033 1.25313 0.788183 1.31618C0.762332 1.37923 0.749273 1.44679 0.749764 1.51493C0.752136 1.65153 0.807456 1.78188 0.904062 1.87848C1.00067 1.97509 1.13101 2.03041 1.26761 2.03278H10.8454V5.85526C10.8447 5.96783 10.8663 6.07944 10.9091 6.18359C10.9518 6.28774 11.0148 6.38236 11.0944 6.46197C11.174 6.54157 11.2687 6.60457 11.3728 6.64732C11.477 6.69006 11.5886 6.71169 11.7011 6.71095H15.1451V9.12204C15.1453 9.14559 15.1407 9.16893 15.1318 9.19072C15.1228 9.2125 15.1096 9.23229 15.093 9.24894C15.0763 9.2656 15.0565 9.27878 15.0347 9.28774C15.0129 9.29669 14.9896 9.30124 14.9661 9.30112H14.3291C14.1613 9.01132 13.9204 8.7706 13.6305 8.60296C13.3405 8.43532 13.0117 8.34663 12.6768 8.34573C12.3428 8.35086 12.0156 8.44134 11.7264 8.60856C11.4372 8.77578 11.1956 9.01419 11.0245 9.30112H5.70853C5.54068 9.01132 5.29978 8.7706 5.00985 8.60296C4.71993 8.43532 4.39112 8.34663 4.05622 8.34573C3.7222 8.35086 3.39503 8.44134 3.10583 8.60856C2.81663 8.77578 2.575 9.01419 2.40392 9.30112H0.572534C0.435193 9.30112 0.303477 9.35568 0.206362 9.45279C0.109247 9.54991 0.0546875 9.68163 0.0546875 9.81897C0.0546875 9.95631 0.109247 10.088 0.206362 10.1851C0.303477 10.2823 0.435193 10.3368 0.572534 10.3368H2.14176C2.16058 10.8311 2.37018 11.2989 2.72655 11.642C3.08291 11.985 3.55833 12.1767 4.05299 12.1767C4.54765 12.1767 5.02307 11.985 5.37944 11.642C5.73581 11.2989 5.9454 10.8311 5.96422 10.3368H10.7642C10.783 10.8311 10.9926 11.2989 11.349 11.642C11.7054 11.985 12.1808 12.1767 12.6754 12.1767C13.1701 12.1767 13.6455 11.985 14.0019 11.642C14.3583 11.2989 14.5679 10.8311 14.5867 10.3368H15.0085C15.33 10.3351 15.6378 10.2065 15.865 9.97903C16.0921 9.75153 16.2202 9.44353 16.2214 9.12204V6.33434C16.2164 6.06167 16.1623 5.79213 16.0617 5.53864ZM4.05622 11.1325C3.88297 11.1325 3.7136 11.0811 3.56954 10.9849C3.42549 10.8886 3.31321 10.7518 3.2469 10.5917C3.1806 10.4317 3.16326 10.2555 3.19706 10.0856C3.23086 9.91568 3.31429 9.75959 3.4368 9.63708C3.55931 9.51457 3.7154 9.43114 3.88532 9.39734C4.05525 9.36354 4.23139 9.38088 4.39145 9.44719C4.55152 9.51349 4.68833 9.62577 4.78459 9.76983C4.88085 9.91389 4.93222 10.0833 4.93222 10.2565C4.93029 10.4882 4.83738 10.7099 4.67351 10.8738C4.50965 11.0377 4.28796 11.1306 4.05622 11.1325ZM12.6768 11.1325C12.5036 11.1325 12.3342 11.0811 12.1902 10.9849C12.0461 10.8886 11.9338 10.7518 11.8675 10.5917C11.8012 10.4317 11.7839 10.2555 11.8177 10.0856C11.8515 9.91568 11.9349 9.75959 12.0574 9.63708C12.1799 9.51457 12.336 9.43114 12.5059 9.39734C12.6759 9.36354 12.852 9.38088 13.0121 9.44719C13.1721 9.51349 13.3089 9.62577 13.4052 9.76983C13.5015 9.91389 13.5528 10.0833 13.5528 10.2565C13.5509 10.4882 13.458 10.7099 13.2941 10.8738C13.1303 11.0377 12.9086 11.1306 12.6768 11.1325ZM11.9005 3.34817H13.3138C13.5008 3.34535 13.6844 3.39887 13.8406 3.50176C13.9968 3.60464 14.1185 3.75215 14.1898 3.9251L14.9467 5.67895H11.9005V3.34817Z" fill="#FBB03B"/>
</svg>
