<svg width="17" height="16" viewBox="0 0 17 16" fill="none" xmlns="http://www.w3.org/2000/svg">
<path d="M16.8979 1.92392C16.2746 2.23178 15.6132 2.43403 14.9359 2.52392C15.6491 2.04924 16.1828 1.303 16.438 0.423909C15.7666 0.865645 15.0326 1.17741 14.2672 1.34591C13.752 0.738774 13.0712 0.336959 12.33 0.202495C11.5888 0.0680313 10.8284 0.208397 10.1661 0.601922C9.50384 0.995448 8.97657 1.62025 8.66569 2.37987C8.35481 3.1395 8.27761 3.9917 8.44601 4.80493C7.08771 4.72949 5.75886 4.3375 4.54574 3.65441C3.33262 2.97132 2.26235 2.01241 1.40441 0.839907C0.968386 1.67541 0.835038 2.66403 1.03147 3.60484C1.22789 4.54566 1.73936 5.36807 2.46191 5.90494C1.91952 5.8849 1.38922 5.72174 0.914809 5.42893V5.47593C0.914817 6.35251 1.18757 7.20214 1.68686 7.88083C2.18615 8.55953 2.88126 9.02556 3.65441 9.19995C3.36097 9.28801 3.05837 9.33273 2.75441 9.33295C2.53833 9.3329 2.32278 9.30912 2.11091 9.26195C2.32914 10.016 2.75396 10.6754 3.326 11.148C3.89804 11.6206 4.58869 11.8828 5.30141 11.898C4.09114 12.9525 2.59684 13.5242 1.05881 13.521C0.786346 13.5207 0.514115 13.5033 0.243408 13.469C1.80472 14.5858 3.62272 15.1788 5.47961 15.177C6.75857 15.187 8.02655 14.9144 9.20989 14.3752C10.3932 13.836 11.4683 13.0408 12.3727 12.036C13.2771 11.0311 13.9927 9.83652 14.478 8.5217C14.9633 7.20687 15.2086 5.79799 15.1996 4.37693L15.1879 3.88592C15.8601 3.35236 16.4395 2.68757 16.8979 1.92392Z" fill="white"/>
</svg>
