<svg width="20" height="20" viewBox="0 0 20 20" fill="none" xmlns="http://www.w3.org/2000/svg">
<path d="M18.0463 14.5505L13.6253 12.7368C13.5095 12.6909 13.4101 12.6115 13.3398 12.5087C13.2694 12.406 13.2314 12.2845 13.2305 12.16V11.1263C13.2294 10.9932 13.2735 10.8636 13.3558 10.7589C14.5263 9.24171 15.1631 7.38047 15.1674 5.46421C15.1684 2.19579 13.0916 0 10 0C6.90842 0 4.83158 2.19579 4.83158 5.46526C4.83593 7.38151 5.47274 9.24272 6.64316 10.76C6.72518 10.8644 6.76935 10.9936 6.76842 11.1263V12.1589C6.76755 12.2835 6.72951 12.4049 6.65918 12.5077C6.58886 12.6104 6.48944 12.6899 6.37368 12.7358L1.95263 14.5495C1.37562 14.7832 0.881521 15.1839 0.533644 15.7001C0.185766 16.2164 -5.07762e-05 16.8248 1.04078e-08 17.4474V19.1674C0.000278956 19.3883 0.0882363 19.6001 0.244552 19.7562C0.400868 19.9123 0.61276 20 0.833684 20H19.1663C19.3874 20 19.5995 19.9122 19.7558 19.7558C19.9122 19.5995 20 19.3874 20 19.1663V17.4474C19.9998 16.8249 19.8137 16.2166 19.4656 15.7005C19.1176 15.1844 18.6234 14.784 18.0463 14.5505ZM18.3337 18.3337H1.66632V17.4474C1.66737 17.1556 1.75549 16.8708 1.9194 16.6295C2.0833 16.3881 2.31552 16.2012 2.58632 16.0926L7.00737 14.2789C7.42938 14.1081 7.79077 13.8152 8.04526 13.4377C8.29974 13.0602 8.43573 12.6153 8.43579 12.16V11.1263C8.43641 10.6139 8.26268 10.1164 7.94316 9.71579C7.01363 8.49301 6.50676 7.00122 6.49895 5.46526C6.49895 2.66526 8.30737 1.66737 10.0011 1.66737C11.6947 1.66737 13.5032 2.66526 13.5032 5.46526C13.4953 7.00122 12.9885 8.49301 12.0589 9.71579C11.7395 10.1165 11.5658 10.6139 11.5663 11.1263V12.1589C11.5664 12.6142 11.7024 13.0591 11.9568 13.4366C12.2113 13.8141 12.5727 14.1071 12.9947 14.2779L17.4158 16.0916C17.6866 16.2001 17.9188 16.3871 18.0827 16.6284C18.2466 16.8698 18.3347 17.1546 18.3358 17.4463L18.3337 18.3337Z" fill="#333333"/>
</svg>
