<svg width="19" height="14" viewBox="0 0 19 14" fill="none" xmlns="http://www.w3.org/2000/svg">
<path d="M17.4263 1.58401C16.9502 0.642013 16.4362 0.469014 15.3796 0.403015C14.323 0.337015 11.6824 0.291016 9.39104 0.291016C7.09963 0.291016 4.44913 0.324015 3.39793 0.402015C2.34673 0.480015 1.82923 0.641013 1.34863 1.58401C0.868025 2.527 0.605225 4.14499 0.605225 6.99698V7.00698C0.605225 9.84696 0.858125 11.4789 1.34863 12.4069C1.83913 13.3349 2.34673 13.5229 3.39523 13.6019C4.44373 13.6809 7.09333 13.7109 9.38924 13.7109C11.6851 13.7109 14.3257 13.6709 15.3787 13.6039C16.4318 13.5369 16.9492 13.3539 17.4254 12.4119C17.9204 11.481 18.1706 9.84896 18.1706 7.01198V7.00198C18.1724 4.14499 17.9222 2.525 17.4263 1.58401ZM7.19323 10.661V3.341L12.6832 7.00098L7.19323 10.661Z" fill="white"/>
</svg>
