<svg width="42" height="35" viewBox="0 0 42 35" fill="none" xmlns="http://www.w3.org/2000/svg">
<path id="noun_cloth_2129414" d="M19.4211 34.8203C19.1691 34.8293 18.9208 34.751 18.711 34.5963C18.5013 34.4417 18.3405 34.2184 18.2511 33.9578L15.3171 25.4457H2.421C2.10292 25.4457 1.78796 25.3764 1.49411 25.2418C1.20027 25.1072 0.933288 24.9099 0.708454 24.6612C0.48362 24.4124 0.305335 24.1172 0.183774 23.7923C0.0622137 23.4673 -0.000235823 23.1191 6.69174e-07 22.7675V2.67818C-0.000119585 2.32577 0.0627081 1.97682 0.184873 1.65131C0.307038 1.3258 0.48615 1.03014 0.711915 0.781322C0.937679 0.5325 1.20565 0.335383 1.50049 0.201308C1.79532 0.0672322 2.11121 -0.00116368 2.43001 1.4978e-05H19.3887C19.6186 4.3594e-06 19.8438 0.072296 20.0379 0.208473C20.232 0.34465 20.387 0.539099 20.4849 0.769056L24.1479 9.37464H38.7747C39.0928 9.37464 39.4077 9.44393 39.7016 9.57854C39.9954 9.71316 40.2624 9.91045 40.4873 10.1592C40.7121 10.4079 40.8904 10.7031 41.0119 11.0281C41.1335 11.353 41.1959 11.7012 41.1957 12.0528V32.1411C41.1958 32.4936 41.133 32.8425 41.0108 33.168C40.8887 33.4936 40.7096 33.7892 40.4838 34.038C40.258 34.2868 39.9901 34.4839 39.6952 34.618C39.4004 34.7521 39.0845 34.8205 38.7657 34.8193L19.4211 34.8203ZM18.6156 2.67818H2.43001C2.43001 2.67818 2.43001 9.37464 2.43001 22.7665H27.1746L18.6156 2.67818ZM25.2846 12.0528L30.1734 23.5356C30.2854 23.7988 30.3168 24.0951 30.2629 24.3798C30.2089 24.6644 30.0727 24.922 29.8746 25.1134L22.6089 32.1411H38.7657C38.7657 32.1411 38.7657 25.4447 38.7657 12.0528H25.2846ZM19.8972 31.205L25.8525 25.4447H17.91L19.8972 31.205Z" fill="white"/>
</svg>
