<svg width="13" height="15" viewBox="0 0 13 15" fill="none" xmlns="http://www.w3.org/2000/svg">
<g clip-path="url(#clip0_19_2822)">
<path d="M7.15 6.74991H3.25C3.07761 6.74991 2.91228 6.82892 2.79038 6.96957C2.66848 7.11022 2.6 7.30099 2.6 7.4999C2.6 7.69881 2.66848 7.88957 2.79038 8.03022C2.91228 8.17087 3.07761 8.24989 3.25 8.24989H7.15C7.32239 8.24989 7.48772 8.17087 7.60962 8.03022C7.73152 7.88957 7.8 7.69881 7.8 7.4999C7.8 7.30099 7.73152 7.11022 7.60962 6.96957C7.48772 6.82892 7.32239 6.74991 7.15 6.74991ZM9.75 3.74995H3.25C3.07761 3.74995 2.91228 3.82896 2.79038 3.96961C2.66848 4.11027 2.6 4.30103 2.6 4.49994C2.6 4.69885 2.66848 4.88961 2.79038 5.03026C2.91228 5.17091 3.07761 5.24993 3.25 5.24993H9.75C9.92239 5.24993 10.0877 5.17091 10.2096 5.03026C10.3315 4.88961 10.4 4.69885 10.4 4.49994C10.4 4.30103 10.3315 4.11027 10.2096 3.96961C10.0877 3.82896 9.92239 3.74995 9.75 3.74995ZM11.05 0H1.95C1.43283 0 0.936838 0.23705 0.571142 0.659001C0.205446 1.08095 0 1.65324 0 2.24997V9.74986C0 10.3466 0.205446 10.9189 0.571142 11.3408C0.936838 11.7628 1.43283 11.9998 1.95 11.9998H9.4835L11.8885 14.7823C11.9492 14.8518 12.0213 14.9068 12.1005 14.9441C12.1797 14.9814 12.2645 15.0004 12.35 14.9998C12.4353 15.0023 12.5199 14.9818 12.597 14.9398C12.7157 14.8835 12.8173 14.788 12.889 14.6652C12.9607 14.5424 12.9994 14.3979 13 14.2498V2.24997C13 1.65324 12.7946 1.08095 12.4289 0.659001C12.0632 0.23705 11.5672 0 11.05 0ZM11.7 12.4423L10.2115 10.7174C10.1508 10.6478 10.0787 10.5928 9.99954 10.5555C9.92035 10.5182 9.83554 10.4993 9.75 10.4999H1.95C1.77761 10.4999 1.61228 10.4208 1.49038 10.2802C1.36848 10.1395 1.3 9.94877 1.3 9.74986V2.24997C1.3 2.05106 1.36848 1.8603 1.49038 1.71965C1.61228 1.579 1.77761 1.49998 1.95 1.49998H11.05C11.2224 1.49998 11.3877 1.579 11.5096 1.71965C11.6315 1.8603 11.7 2.05106 11.7 2.24997V12.4423Z" fill="#FFC017"/>
</g>
<defs>
<clipPath id="clip0_19_2822">
<rect width="13" height="15" fill="white"/>
</clipPath>
</defs>
</svg>
