<svg width="14" height="15" viewBox="0 0 14 15" fill="none" xmlns="http://www.w3.org/2000/svg">
<path d="M3.6898 7.989H5.22442V14.7581C5.22442 14.8917 5.32549 15 5.45023 15H8.05224C8.17698 15 8.27805 14.8917 8.27805 14.7581V8.02089H10.0422C10.1569 8.02089 10.2534 7.92866 10.2665 7.80658L10.5345 5.31455C10.5418 5.24598 10.5216 5.17732 10.4788 5.12589C10.4359 5.0744 10.3746 5.04494 10.3102 5.04494H8.27814V3.48281C8.27814 3.0119 8.51478 2.77311 8.98157 2.77311C9.04809 2.77311 10.3102 2.77311 10.3102 2.77311C10.435 2.77311 10.536 2.66477 10.536 2.53118V0.243726C10.536 0.110081 10.435 0.00179032 10.3102 0.00179032H8.47915C8.46624 0.0011129 8.43756 0 8.39529 0C8.07758 0 6.97325 0.0668225 6.10091 0.926661C5.13437 1.8795 5.26872 3.02037 5.30083 3.21818V5.04489H3.6898C3.56506 5.04489 3.46399 5.15318 3.46399 5.28682V7.74702C3.46399 7.88066 3.56506 7.989 3.6898 7.989Z" fill="#333333"/>
</svg>
