<svg width="14" height="15" viewBox="0 0 14 15" fill="none" xmlns="http://www.w3.org/2000/svg">
<g clip-path="url(#clip0_29_3350)">
<path d="M9.82495 0H4.17511C1.88261 0 0.0175171 1.99828 0.0175171 4.45456V10.5455C0.0175171 13.0017 1.88261 15 4.17511 15H9.82495C12.1174 15 13.9825 13.0017 13.9825 10.5455V4.45456C13.9825 1.99828 12.1174 0 9.82495 0ZM13.4247 10.5454C13.4247 12.6722 11.8099 14.4024 9.82495 14.4024H4.17511C2.19014 14.4024 0.575302 12.6722 0.575302 10.5455V4.45456C0.575302 2.32781 2.19014 0.597627 4.17511 0.597627H9.82495C11.8099 0.597627 13.4247 2.32781 13.4247 4.45456V10.5454Z" fill="#333333"/>
<path d="M9.82494 1.70782H4.17509C2.76147 1.70782 1.61145 2.93996 1.61145 4.45455V10.5455C1.61145 12.0601 2.76147 13.2922 4.17509 13.2922H9.82494C11.2385 13.2922 12.3886 12.0601 12.3886 10.5455V4.45455C12.3886 2.93999 11.2385 1.70782 9.82494 1.70782ZM11.8308 10.5454C11.8308 11.7305 10.931 12.6946 9.82494 12.6946H4.17509C3.06904 12.6946 2.16921 11.7305 2.16921 10.5454V4.45452C2.16921 3.26949 3.06904 2.30539 4.17509 2.30539V2.30542H9.82494C10.931 2.30542 11.8308 3.26952 11.8308 4.45455V10.5454Z" fill="#333333"/>
<path d="M6.99999 3.63803C5.01248 3.63803 3.39551 5.3705 3.39551 7.5C3.39551 9.62951 5.01245 11.3619 6.99999 11.3619C8.98752 11.3619 10.6045 9.62951 10.6045 7.5C10.6045 5.3705 8.9875 3.63803 6.99999 3.63803ZM6.99999 10.7643C5.32004 10.7643 3.95329 9.29994 3.95329 7.5C3.95329 5.70003 5.32004 4.23566 6.99999 4.23566C8.67996 4.23566 10.0467 5.70003 10.0467 7.5C10.0467 9.29994 8.67993 10.7643 6.99999 10.7643Z" fill="#333333"/>
<path d="M6.99998 5.30392C5.86981 5.30392 4.95032 6.28909 4.95032 7.49999C4.95032 8.71089 5.86981 9.69605 6.99998 9.69605C8.13018 9.69605 9.04964 8.71089 9.04964 7.49999C9.04964 6.28909 8.13015 5.30392 6.99998 5.30392ZM6.99998 9.09846C6.17734 9.09846 5.50808 8.38139 5.50808 7.49999C5.50808 6.61859 6.17734 5.90152 6.99998 5.90152C7.82261 5.90152 8.49188 6.61856 8.49188 7.49999C8.49188 8.38139 7.82261 9.09846 6.99998 9.09846Z" fill="#333333"/>
<path d="M10.4039 2.92508C9.92637 2.92508 9.53784 3.34133 9.53784 3.853C9.53784 4.36467 9.92634 4.78089 10.4039 4.78089C10.8814 4.78089 11.2699 4.36467 11.2699 3.853C11.2699 3.34133 10.8814 2.92508 10.4039 2.92508ZM10.4039 4.18326C10.2339 4.18326 10.0956 4.03511 10.0956 3.853C10.0956 3.67086 10.2339 3.52271 10.4039 3.52271C10.5739 3.52271 10.7121 3.67089 10.7121 3.853C10.7122 4.03511 10.5739 4.18326 10.4039 4.18326Z" fill="#333333"/>
<path d="M6.55376 13.5657H3.93226C3.77823 13.5657 3.65338 13.6995 3.65338 13.8645C3.65338 14.0296 3.77823 14.1633 3.93226 14.1633H6.55376C6.70779 14.1633 6.83264 14.0296 6.83264 13.8645C6.83264 13.6995 6.70779 13.5657 6.55376 13.5657Z" fill="#333333"/>
<path d="M7.61352 13.5657H7.44618C7.29218 13.5657 7.1673 13.6995 7.1673 13.8645C7.1673 14.0296 7.29218 14.1633 7.44618 14.1633H7.61352C7.76755 14.1633 7.8924 14.0296 7.8924 13.8645C7.8924 13.6995 7.76752 13.5657 7.61352 13.5657Z" fill="#333333"/>
</g>
<defs>
<clipPath id="clip0_29_3350">
<rect width="14" height="15" fill="white"/>
</clipPath>
</defs>
</svg>
