<svg width="13" height="15" viewBox="0 0 13 15" fill="none" xmlns="http://www.w3.org/2000/svg">
<path d="M12.4393 10.1976C12.7057 9.80552 12.8335 9.38519 12.8172 8.95232C12.8009 8.47553 12.616 8.10226 12.4638 7.87327C12.6405 7.36512 12.7084 6.56524 12.1185 5.94417C11.6863 5.48933 10.9523 5.28545 9.93554 5.34191C9.22056 5.37955 8.62249 5.53325 8.59802 5.53952H8.5953C8.45937 5.56775 8.31529 5.60226 8.16849 5.6399C8.15762 5.43915 8.18752 4.9404 8.50831 3.81744C8.8889 2.48118 8.86715 1.45859 8.43763 0.77478C7.98635 0.0564618 7.26594 0 7.0539 0C6.85001 0 6.66243 0.0972397 6.52922 0.276035C6.22746 0.680677 6.2628 1.42723 6.30086 1.77227C5.94202 2.88268 4.93616 5.60539 4.08526 6.36135C4.06895 6.3739 4.05536 6.38959 4.04177 6.40527C3.79166 6.70954 3.62311 7.0389 3.50894 7.32748C3.34854 7.2271 3.1664 7.17064 2.97067 7.17064H1.31237C0.687104 7.17064 0.181458 7.75721 0.181458 8.47553V13.5728C0.181458 14.2942 0.689822 14.8777 1.31237 14.8777H2.97067C3.21262 14.8777 3.43825 14.7898 3.62311 14.6393L4.26197 14.7271C4.35983 14.7428 6.09969 14.9969 7.88577 14.9561C8.20927 14.9843 8.51375 15 8.79647 15C9.28309 15 9.70718 14.9561 10.0606 14.8683C10.8925 14.6644 11.4606 14.2566 11.7488 13.6575C11.969 13.1995 11.969 12.7447 11.9337 12.4561C12.4746 11.8915 12.5698 11.2673 12.5508 10.8281C12.5399 10.574 12.491 10.3576 12.4393 10.1976ZM1.31237 14.0307C1.09216 14.0307 0.91546 13.8237 0.91546 13.5728V8.4724C0.91546 8.21832 1.09488 8.01443 1.31237 8.01443H2.97067C3.19087 8.01443 3.36757 8.22145 3.36757 8.4724V13.5696C3.36757 13.8237 3.18815 14.0276 2.97067 14.0276H1.31237V14.0307ZM11.7434 9.83061C11.6292 9.96863 11.6074 10.1788 11.6944 10.3419C11.6944 10.345 11.8059 10.5646 11.8195 10.8657C11.8385 11.2767 11.6672 11.6405 11.3084 11.9511C11.1806 12.064 11.129 12.2585 11.1833 12.4341C11.1833 12.4373 11.3002 12.8513 11.1099 13.2434C10.9278 13.6198 10.5227 13.8896 9.90835 14.0401C9.4163 14.1625 8.74754 14.1844 7.92654 14.1092C7.91567 14.1092 7.90208 14.1092 7.88848 14.1092C6.14047 14.1531 4.37343 13.8896 4.3544 13.8864H4.35168L4.07711 13.8488C4.09342 13.761 4.10157 13.6669 4.10157 13.5728V8.4724C4.10157 8.33751 4.08255 8.20577 4.04992 8.08344C4.09886 7.87327 4.23478 7.4059 4.55557 7.00753C5.77619 5.89084 6.96962 2.12359 7.02127 1.96048C7.04302 1.8946 7.04846 1.82246 7.03758 1.75031C6.99137 1.399 7.00768 0.96926 7.07293 0.840652C7.21701 0.843789 7.60576 0.890841 7.83955 1.26412C8.11684 1.7064 8.10597 2.49686 7.80693 3.54454C7.35022 5.14115 7.31216 5.98181 7.67372 6.35194C7.85314 6.53701 8.09237 6.54642 8.26636 6.47428C8.43219 6.43036 8.58986 6.39272 8.73938 6.36449C8.75026 6.36135 8.76385 6.35822 8.77472 6.35508C9.60931 6.14492 11.1045 6.01631 11.6237 6.56211C12.0641 7.02635 11.7515 7.64115 11.7162 7.70703C11.6156 7.88268 11.6455 8.11167 11.7814 8.25282C11.7841 8.25596 12.0696 8.5665 12.0832 8.98369C12.094 9.26286 11.9799 9.54831 11.7434 9.83061Z" fill="#FFC017"/>
</svg>
