<svg width="14" height="15" viewBox="0 0 14 15" fill="none" xmlns="http://www.w3.org/2000/svg">
<g clip-path="url(#clip0_29_3414)">
<path d="M13.6826 2.77683C13.4627 2.88135 13.2366 2.96956 13.0055 3.04117C13.2791 2.70972 13.4876 2.31972 13.6149 1.89295C13.6435 1.79729 13.6139 1.69258 13.5405 1.63001C13.4672 1.5674 13.3654 1.5599 13.2847 1.61114C12.794 1.92295 12.2646 2.14703 11.7095 2.27806C11.1504 1.69267 10.391 1.35953 9.60588 1.35953C7.94868 1.35953 6.60044 2.80403 6.60044 4.57954C6.60044 4.71938 6.6087 4.85845 6.62505 4.99558C4.56863 4.80212 2.65682 3.71917 1.34398 1.99374C1.29719 1.93224 1.22511 1.89909 1.15132 1.90543C1.07748 1.91162 1.01114 1.95624 0.973836 2.0248C0.707565 2.51433 0.566797 3.07422 0.566797 3.64388C0.566797 4.41977 0.825346 5.15593 1.28206 5.73116C1.14319 5.67962 1.00843 5.61522 0.87981 5.53872C0.810759 5.49754 0.726488 5.49817 0.657888 5.54032C0.589242 5.58246 0.546204 5.65998 0.544397 5.7447C0.544081 5.75898 0.544081 5.77325 0.544081 5.78772C0.544081 6.94587 1.12585 7.98856 2.0153 8.55687C1.93889 8.54869 1.86252 8.53683 1.78665 8.5213C1.70843 8.50529 1.628 8.53466 1.57525 8.59858C1.52241 8.66245 1.50493 8.75148 1.52927 8.83277C1.8585 9.93406 2.70613 10.7441 3.73084 10.9911C2.88095 11.5614 1.90904 11.8602 0.888752 11.8602C0.675862 11.8602 0.461752 11.8468 0.252204 11.8202C0.148107 11.8069 0.0485714 11.8728 0.0131198 11.9789C-0.0223318 12.085 0.0152423 12.2033 0.103804 12.2641C1.41452 13.1645 2.93009 13.6405 4.48657 13.6405C7.54643 13.6405 9.46059 12.0945 10.5275 10.7976C11.858 9.18043 12.621 7.03993 12.621 4.92498C12.621 4.83662 12.6198 4.7474 12.6172 4.65846C13.1421 4.23474 13.5941 3.72193 13.9618 3.13253C14.0177 3.04301 14.0116 2.92471 13.9469 2.8423C13.8823 2.75985 13.7746 2.73319 13.6826 2.77683Z" fill="#333333"/>
</g>
<defs>
<clipPath id="clip0_29_3414">
<rect width="14" height="15" fill="white"/>
</clipPath>
</defs>
</svg>
