<svg width="14" height="15" viewBox="0 0 14 15" fill="none" xmlns="http://www.w3.org/2000/svg">
<path d="M6.8361 5.66647C7.19598 5.66647 7.46939 5.52441 7.66457 5.23941C7.81363 5.03029 7.88281 4.695 7.88281 4.25118V2.78647C7.88281 2.34265 7.81363 2.01618 7.66457 1.80706C7.46857 1.52382 7.19516 1.38088 6.8361 1.38088C6.48363 1.38088 6.21022 1.52294 6.01669 1.80706C5.86763 2.01706 5.79763 2.34353 5.79763 2.78735V4.25206C5.79763 4.69588 5.86763 5.02235 6.01669 5.24029C6.21022 5.52441 6.48363 5.66647 6.8361 5.66647ZM6.5001 2.63647C6.5001 2.25176 6.60963 2.05941 6.8361 2.05941C7.07081 2.05941 7.1721 2.25176 7.1721 2.63647V4.39412C7.1721 4.77971 7.07081 4.98 6.8361 4.98C6.60963 4.98 6.5001 4.77882 6.5001 4.39412V2.63647ZM8.52351 5.35676C8.48398 5.23059 8.46175 5.03029 8.46175 4.72941V1.43118H9.17245V4.50265C9.17245 4.67912 9.17245 4.77882 9.18069 4.79647C9.19634 4.91382 9.25069 4.98 9.34457 4.98C9.48457 4.98 9.63281 4.86265 9.78928 4.62V1.43118H10.5V5.60824H9.78928V5.14765C9.50845 5.49882 9.24328 5.66647 8.98387 5.66647C8.75739 5.66647 8.59351 5.56676 8.52351 5.35676ZM11.2272 10.4215V10.8062H10.5239V10.4215C10.5239 10.0447 10.6416 9.85147 10.8755 9.85147C11.1094 9.85235 11.2272 10.0447 11.2272 10.4215ZM3.58563 1.56529C3.41434 1.04647 3.24304 0.518824 3.07751 0H3.90681L4.46104 2.20147L4.99222 0H5.7894L4.84398 3.33971V5.60824H4.06328V3.33971C3.99245 2.92941 3.83598 2.34353 3.58563 1.56529ZM12.586 7.75147C12.4452 7.08971 11.937 6.60441 11.3359 6.52941C9.89798 6.36176 8.44445 6.36176 6.99916 6.36176C5.55386 6.36176 4.10034 6.36176 2.67069 6.52941C2.06292 6.60441 1.56222 7.08971 1.41398 7.75147C1.21881 8.68853 1.21057 9.71029 1.21057 10.6809C1.21057 11.6435 1.21057 12.6724 1.41398 13.6103C1.55481 14.2721 2.06292 14.7574 2.6641 14.8244C4.10116 15 5.55469 15 6.99998 15C8.44528 15 9.89881 15 11.3367 14.8244C11.937 14.7574 12.4377 14.2721 12.5868 13.6103C12.782 12.6732 12.7902 11.6435 12.7902 10.6809C12.7894 9.71029 12.7894 8.68853 12.586 7.75147ZM4.51539 8.59676H3.68034V13.3597H2.89881V8.59676H2.07775V7.80971H4.51539V8.59676ZM6.62528 13.3597H5.92939V12.9079C5.64775 13.2512 5.38257 13.4188 5.13222 13.4188C4.90657 13.4188 4.74187 13.3182 4.67928 13.1091C4.63975 12.9838 4.61669 12.7906 4.61669 12.4985V9.22588H5.31257V12.2726C5.31257 12.4491 5.31257 12.5409 5.31998 12.5665C5.33645 12.6829 5.39081 12.7421 5.48387 12.7421C5.62551 12.7421 5.77375 12.6256 5.92939 12.3909V9.22676H6.62528V13.3597ZM9.28198 12.1209C9.28198 12.5065 9.26551 12.7818 9.21116 12.9574C9.12551 13.2591 8.92951 13.4179 8.6561 13.4179C8.40657 13.4179 8.16363 13.2671 7.92892 12.9574V13.3597H7.23469V7.80971H7.92892V9.62647C8.1554 9.32471 8.39834 9.17471 8.6561 9.17471C8.92951 9.17471 9.12551 9.33353 9.21116 9.64324C9.26551 9.81088 9.28198 10.0862 9.28198 10.4718V12.1209ZM11.9222 11.4344H10.5239V12.1624C10.5239 12.5479 10.6416 12.7394 10.8837 12.7394C11.0559 12.7394 11.1572 12.6397 11.1967 12.4385C11.2041 12.3971 11.2123 12.2294 11.2123 11.9276H11.923V12.0371C11.923 12.2797 11.923 12.4474 11.9074 12.5224C11.8909 12.6891 11.8283 12.84 11.7435 12.9741C11.5549 13.2671 11.2667 13.4179 10.9002 13.4179C10.5329 13.4179 10.2587 13.2759 10.0561 12.9909C9.90787 12.7897 9.82963 12.4632 9.82963 12.0194V10.5715C9.82963 10.1276 9.90045 9.81 10.0487 9.6C10.2521 9.315 10.5255 9.17294 10.8854 9.17294C11.2379 9.17294 11.5105 9.315 11.713 9.6C11.8547 9.80912 11.9247 10.1268 11.9247 10.5715V11.4344H11.9222ZM8.5861 10.4126V12.1791C8.5861 12.5559 8.48398 12.7394 8.28139 12.7394C8.16363 12.7394 8.04669 12.6812 7.92892 12.5559V10.0368C8.04669 9.91059 8.16363 9.85235 8.28139 9.85235C8.48398 9.85235 8.5861 10.0447 8.5861 10.4126Z" fill="#333333"/>
</svg>
