<svg width="24" height="25" viewBox="0 0 24 25" fill="none" xmlns="http://www.w3.org/2000/svg">
<g clip-path="url(#clip0_1013_1135)">
<path fill-rule="evenodd" clip-rule="evenodd" d="M11 9.5H13V6.5H16V4.5H13V1.5H11V4.5H8V6.5H11V9.5ZM7 18.5C5.9 18.5 5.01 19.4 5.01 20.5C5.01 21.6 5.9 22.5 7 22.5C8.1 22.5 9 21.6 9 20.5C9 19.4 8.1 18.5 7 18.5ZM17 18.5C15.9 18.5 15.01 19.4 15.01 20.5C15.01 21.6 15.9 22.5 17 22.5C18.1 22.5 19 21.6 19 20.5C19 19.4 18.1 18.5 17 18.5ZM7.17 15.25L7.2 15.13L8.1 13.5H15.55C16.3 13.5 16.96 13.09 17.3 12.47L21.16 5.46L19.42 4.5H19.41L18.31 6.5L15.55 11.5H8.53L8.4 11.23L6.16 6.5L5.21 4.5L4.27 2.5H1V4.5H3L6.6 12.09L5.25 14.54C5.09 14.82 5 15.15 5 15.5C5 16.6 5.9 17.5 7 17.5H19V15.5H7.42C7.29 15.5 7.17 15.39 7.17 15.25Z" fill="#FFC017"/>
</g>
<defs>
<clipPath id="clip0_1013_1135">
<rect width="24" height="24" fill="white" transform="translate(0 0.5)"/>
</clipPath>
</defs>
</svg>
