<svg width="21" height="20" viewBox="0 0 21 20" fill="none" xmlns="http://www.w3.org/2000/svg">
<path d="M10.5378 0.000152588L10.5065 0C6.40618 0 3.07031 3.33617 3.07031 7.43697C3.07031 9.68519 4.21945 11.4387 5.49981 13.1849L10.4966 20C10.4966 20 15.2195 13.5879 15.5149 13.1851C16.7953 11.4389 17.9444 9.68534 17.9444 7.43712C17.9444 3.3464 14.6249 0.0163269 10.5378 0.000152588ZM14.5701 12.4922C14.2744 12.8956 11.1715 17.1454 10.5116 18.0389L6.44463 12.4922C5.2395 10.8485 4.24203 9.33363 4.24203 7.43697C4.24203 3.992 7.03637 1.18744 10.4774 1.17172H10.5074C13.9622 1.17172 16.7728 3.98238 16.7728 7.43712C16.7728 9.33378 15.7752 10.8485 14.5701 12.4922Z" fill="#333333"/>
<path d="M10.508 3.14453C8.14065 3.14453 6.21484 5.07049 6.21484 7.43774C6.21484 9.80513 8.14065 11.7311 10.508 11.7311C12.8753 11.7311 14.8013 9.80513 14.8013 7.43774C14.8013 5.07049 12.8753 3.14453 10.508 3.14453ZM10.508 10.5594C8.78671 10.5594 7.38641 9.15908 7.38641 7.43774C7.38641 5.71655 8.78671 4.31625 10.508 4.31625C12.2292 4.31625 13.6297 5.71655 13.6297 7.43774C13.6297 9.15908 12.2292 10.5594 10.508 10.5594Z" fill="#333333"/>
</svg>
