<svg width="23" height="22" viewBox="0 0 23 22" fill="none" xmlns="http://www.w3.org/2000/svg">
<g clip-path="url(#clip0_1052_9873)">
<path fill-rule="evenodd" clip-rule="evenodd" d="M7.5949 11.5768C9.1399 14.6131 11.6291 17.0916 14.6654 18.6473L17.0258 16.2869C17.3155 15.9972 17.7447 15.9006 18.1202 16.0294C19.3219 16.4264 20.6201 16.6409 21.9505 16.6409C22.5406 16.6409 23.0234 17.1237 23.0234 17.7139V21.4583C23.0234 22.0484 22.5406 22.5312 21.9505 22.5312C11.8758 22.5312 3.71094 14.3664 3.71094 4.29167C3.71094 3.70156 4.19375 3.21875 4.78385 3.21875H8.53906C9.12917 3.21875 9.61198 3.70156 9.61198 4.29167C9.61198 5.63281 9.82656 6.92031 10.2235 8.12198C10.3416 8.4975 10.2557 8.91594 9.95531 9.21635L7.5949 11.5768Z" fill="#333333"/>
</g>
<defs>
<clipPath id="clip0_1052_9873">
<rect width="25.75" height="25.75" fill="white" transform="translate(0.492188)"/>
</clipPath>
</defs>
</svg>
